<?xml version="1.0" standalone="no"?>
<!DOCTYPE svg PUBLIC "-//W3C//DTD SVG 20010904//EN"
 "http://www.w3.org/TR/2001/REC-SVG-20010904/DTD/svg10.dtd">
<svg version="1.0" xmlns="http://www.w3.org/2000/svg"
 width="1508.000000pt" height="1508.000000pt" viewBox="0 0 1508.000000 1508.000000"
 preserveAspectRatio="xMidYMid meet">
<metadata>
Created by potrace 1.14, written by Peter Selinger 2001-2017
</metadata>
<g transform="translate(0.000000,1508.000000) scale(0.100000,-0.100000)"
fill="#000000" stroke="none">
<path d="M7498 15075 c-2 -2 -30 -6 -63 -9 -33 -2 -60 -5 -60 -6 0 -1 -18 -3
-40 -4 -43 -4 -76 -9 -200 -33 -44 -8 -84 -16 -90 -17 -5 -1 -16 -5 -22 -9 -7
-5 -13 -6 -13 -3 0 2 -33 -4 -72 -16 -40 -11 -80 -21 -88 -23 -125 -27 -627
-234 -652 -270 -4 -5 -8 -6 -8 -1 0 5 -6 4 -12 -2 -12 -9 -37 -24 -138 -80
-25 -14 -101 -61 -170 -105 -69 -44 -140 -89 -157 -99 -18 -11 -33 -24 -33
-30 0 -5 -4 -7 -9 -4 -5 4 -11 3 -13 -1 -1 -5 -32 -28 -68 -52 -36 -25 -99
-71 -141 -102 -42 -32 -79 -55 -83 -52 -3 4 -6 1 -6 -5 0 -5 -16 -20 -35 -32
-20 -12 -41 -27 -48 -34 -6 -7 -25 -21 -42 -32 -16 -10 -39 -26 -50 -36 -11
-9 -67 -53 -125 -99 -58 -46 -110 -88 -116 -93 -6 -6 -42 -38 -79 -71 -60 -53
-135 -127 -222 -220 -63 -67 -263 -333 -263 -350 0 -2 -17 -30 -38 -62 -45
-67 -79 -124 -123 -208 -17 -33 -34 -62 -38 -65 -12 -10 -237 -474 -271 -560
-8 -19 -17 -37 -22 -40 -4 -3 -9 -15 -11 -25 -2 -11 -13 -40 -25 -65 -28 -60
-173 -392 -176 -405 -2 -5 -6 -17 -9 -25 -3 -8 -16 -44 -28 -80 -19 -58 -24
-76 -32 -115 -2 -5 -6 -16 -10 -22 -5 -7 -6 -17 -2 -22 3 -5 0 -13 -6 -16 -5
-4 -8 -13 -5 -20 2 -7 2 -16 -2 -19 -3 -4 -7 -14 -8 -22 -2 -9 -7 -37 -13 -63
-6 -25 -13 -62 -15 -81 -3 -19 -9 -68 -15 -109 -6 -40 -14 -99 -17 -130 -3
-31 -7 -74 -9 -96 -11 -110 -19 -332 -18 -520 0 -195 3 -270 18 -465 11 -131
13 -163 19 -251 4 -47 9 -103 11 -125 2 -21 7 -75 10 -120 3 -44 8 -91 10
-104 3 -13 7 -42 11 -65 3 -22 9 -60 14 -84 4 -24 8 -82 8 -128 0 -98 -7 -106
-98 -108 -75 -2 -117 -13 -167 -41 -123 -71 -162 -155 -158 -342 2 -120 6
-146 25 -181 6 -12 8 -21 5 -21 -7 0 53 -110 70 -126 33 -33 57 -128 60 -239
3 -60 6 -119 9 -130 2 -11 7 -31 10 -45 3 -14 8 -37 11 -52 3 -16 7 -39 10
-53 9 -43 15 -79 21 -115 3 -19 7 -45 10 -57 2 -13 6 -33 8 -45 6 -31 28 -168
30 -193 2 -11 6 -40 10 -65 4 -25 9 -56 10 -70 5 -38 17 -130 22 -175 3 -22 7
-62 9 -90 2 -27 6 -66 9 -85 5 -35 15 -169 22 -285 2 -33 6 -141 8 -240 5
-155 10 -220 16 -220 1 0 3 -8 5 -17 8 -43 55 -117 103 -165 29 -29 58 -53 64
-53 6 0 19 -7 28 -15 10 -9 27 -18 40 -20 26 -5 64 -28 98 -59 42 -38 64 -106
77 -236 9 -92 27 -211 41 -270 3 -14 8 -44 11 -67 3 -24 10 -43 15 -43 5 0 7
-4 4 -8 -4 -7 5 -53 18 -97 2 -5 6 -23 10 -40 13 -52 57 -199 66 -220 11 -26
22 -57 26 -70 9 -37 50 -141 57 -143 4 -2 7 -9 7 -16 0 -6 9 -28 19 -49 10
-20 21 -47 24 -60 7 -26 53 -84 78 -97 13 -8 15 -5 12 18 -6 35 -34 124 -43
137 -3 6 -17 39 -29 75 -12 36 -26 74 -31 85 -23 55 -39 105 -34 105 4 0 2 6
-3 13 -9 10 -40 95 -49 132 -2 6 -10 35 -19 65 -23 78 -51 215 -61 290 -2 19
-6 46 -9 60 -3 14 -8 39 -10 55 -9 54 -15 90 -20 115 -6 31 -11 58 -24 135
-16 92 -20 110 -35 146 -17 41 -57 77 -111 102 -124 57 -216 145 -248 239 -28
80 -28 77 -32 318 -1 124 -6 270 -9 325 -12 180 -16 229 -21 270 -3 22 -7 63
-10 90 -2 28 -4 50 -6 50 -1 0 -2 11 -3 25 -1 14 -6 43 -10 65 -4 22 -10 51
-12 65 -2 14 -8 45 -14 70 -5 25 -12 63 -16 85 -4 22 -8 45 -9 50 -22 101 -29
132 -30 145 -1 8 -10 53 -20 100 -26 122 -26 154 0 192 27 41 56 112 63 158 4
19 6 96 6 170 0 111 -3 141 -18 170 -28 53 -89 105 -147 126 -62 23 -83 50
-76 101 12 99 81 170 175 180 88 9 147 -37 154 -121 3 -29 10 -26 16 7 5 30
10 52 12 52 2 0 7 20 15 59 3 16 8 33 10 36 2 4 7 20 9 36 3 16 8 40 11 54 7
34 8 136 2 147 -3 5 -8 28 -12 53 -4 25 -8 47 -10 50 -6 10 -25 150 -31 220
-2 30 -6 82 -8 115 -17 223 -21 283 -32 440 -7 102 -12 688 -6 699 3 5 6 41 7
80 3 83 14 230 20 266 2 14 7 48 10 75 2 28 7 61 9 74 3 12 8 43 11 68 2 24 7
48 9 51 2 4 7 24 10 44 3 21 15 70 26 110 12 40 23 82 25 92 3 10 10 35 17 55
7 20 12 38 13 41 0 3 6 14 12 25 6 11 12 25 13 30 2 6 8 24 14 40 5 17 9 33 8
38 -1 4 3 7 8 7 6 0 10 4 10 10 0 11 77 192 131 308 21 46 39 86 39 88 0 3 34
74 75 158 41 84 75 158 75 164 0 6 3 12 8 14 4 2 34 57 67 123 271 541 431
752 868 1143 20 17 39 32 42 32 3 0 19 14 35 30 16 17 34 30 39 30 5 0 11 4
13 8 4 11 150 119 268 200 52 36 123 85 158 109 34 24 62 40 62 37 0 -3 6 1
14 8 7 8 44 34 82 58 38 25 72 49 76 55 5 6 8 6 8 0 0 -6 3 -5 8 1 9 15 209
144 222 144 5 0 10 5 10 10 0 6 5 10 10 10 6 0 27 11 48 24 58 37 239 129 332
170 134 59 143 63 185 76 22 7 56 20 75 28 19 9 38 15 42 14 4 -1 20 3 35 9
15 6 35 12 43 14 8 3 42 12 75 21 33 9 67 17 75 19 8 2 49 10 90 18 75 16 121
23 195 33 40 5 62 7 210 20 183 16 451 8 660 -21 31 -4 180 -37 270 -59 48
-12 136 -40 162 -52 17 -8 34 -14 38 -14 17 0 242 -108 320 -153 27 -16 79
-45 115 -65 36 -19 76 -44 89 -54 13 -10 29 -18 36 -18 6 0 20 -9 30 -20 9
-10 20 -18 24 -17 6 1 38 -17 91 -53 14 -9 45 -27 70 -41 25 -13 47 -26 50
-29 3 -3 47 -32 98 -64 131 -82 341 -221 376 -248 16 -13 34 -25 40 -27 13 -4
95 -65 196 -145 85 -68 265 -246 325 -321 22 -27 42 -52 46 -55 3 -3 18 -23
34 -45 17 -22 32 -42 35 -45 37 -37 212 -316 325 -520 74 -134 345 -691 345
-709 0 -6 5 -11 10 -11 6 0 10 -5 10 -12 0 -7 30 -77 66 -157 70 -154 110
-249 119 -283 2 -5 4 -10 5 -13 1 -3 3 -8 4 -12 1 -5 14 -44 28 -88 15 -44 34
-109 43 -145 9 -36 19 -72 22 -80 3 -8 7 -22 8 -30 6 -37 16 -90 29 -160 16
-86 26 -158 31 -215 15 -168 18 -238 17 -365 0 -171 -6 -268 -26 -455 -3 -22
-8 -69 -12 -105 -3 -36 -8 -81 -10 -100 -7 -66 -15 -145 -19 -195 -2 -27 -7
-95 -12 -150 -4 -55 -7 -219 -7 -365 0 -210 3 -270 15 -291 51 -93 70 -141 77
-189 10 -85 4 -635 -8 -635 -1 0 -3 -11 -4 -25 -6 -58 -17 -147 -20 -170 -23
-143 -30 -198 -30 -217 0 -13 -2 -23 -5 -23 -3 0 -6 -10 -7 -22 -1 -29 -12
-116 -18 -144 -2 -11 -7 -45 -10 -75 -3 -30 -8 -63 -10 -74 -26 -136 -27 -558
-1 -685 18 -85 24 -256 12 -350 -7 -60 -39 -161 -62 -196 -16 -25 -73 -84
-123 -126 -55 -48 -69 -90 -75 -218 -3 -63 -8 -135 -11 -160 -11 -105 -17
-157 -21 -180 -2 -14 -7 -52 -10 -85 -12 -108 -14 -123 -20 -167 -4 -24 -10
-61 -15 -83 -5 -22 -12 -55 -15 -74 -9 -52 -39 -157 -69 -241 -15 -41 -28 -79
-30 -85 -1 -5 -8 -30 -15 -55 -23 -82 -14 -159 25 -197 30 -30 36 -19 39 72 2
70 10 110 35 180 17 50 33 95 34 100 1 6 10 34 19 64 20 64 63 283 72 361 3
30 8 66 10 80 5 31 13 107 20 180 3 30 7 73 9 95 2 22 7 74 11 116 10 124 26
185 61 223 13 14 24 27 24 30 0 2 17 22 38 43 75 75 132 189 149 295 13 77 7
249 -12 358 -29 165 -22 679 11 880 3 19 7 46 9 60 2 14 4 25 5 25 2 0 5 13
13 60 3 17 8 41 11 55 7 27 13 83 21 170 6 69 12 107 23 145 16 51 55 140 66
147 6 4 8 8 4 8 -4 0 13 35 37 78 78 142 98 235 72 335 -22 82 -54 131 -150
228 -55 56 -89 100 -98 125 -21 64 -17 638 7 799 2 17 6 55 9 85 2 30 6 71 9
90 6 38 24 197 31 270 29 285 25 608 -9 827 -4 23 -9 57 -12 75 -6 42 -9 58
-28 148 -7 29 -22 97 -29 125 -3 11 -10 31 -15 45 -5 14 -10 28 -11 33 -4 39
-109 340 -157 452 -7 17 -38 91 -69 165 -31 74 -61 139 -66 144 -5 6 -9 18 -9
28 0 10 -4 18 -10 18 -5 0 -10 5 -10 11 0 13 -178 370 -229 459 -17 30 -41 75
-53 100 -13 25 -25 47 -28 50 -3 3 -12 19 -20 35 -8 17 -19 33 -25 37 -5 4 -6
8 -1 8 5 0 2 8 -6 18 -22 26 -98 159 -98 171 0 6 -4 11 -9 11 -5 0 -11 8 -14
18 -6 18 -38 74 -48 82 -3 3 -25 33 -48 68 -164 243 -357 448 -586 621 -22 17
-44 34 -50 39 -5 4 -25 17 -42 27 -18 11 -33 23 -33 27 0 4 -5 8 -11 8 -12 0
-102 61 -107 73 -2 4 -10 7 -18 7 -8 0 -14 3 -14 8 0 4 -21 19 -48 35 -55 32
-82 49 -96 60 -31 24 -149 97 -156 97 -5 0 -10 3 -12 8 -3 7 -66 47 -211 134
-34 20 -67 41 -74 47 -7 6 -28 18 -47 28 -20 9 -36 20 -36 25 0 4 -6 8 -14 8
-8 0 -21 6 -28 13 -15 14 -120 72 -228 125 -41 20 -77 40 -80 43 -3 3 -21 11
-40 18 -19 7 -50 20 -69 28 -69 31 -275 96 -371 118 -107 24 -206 42 -275 50
-27 3 -66 8 -85 11 -40 7 -476 15 -482 9z m-4114 -6631 c26 -25 35 -49 40
-100 5 -62 -10 -116 -31 -112 -9 2 -25 16 -37 31 -17 23 -21 42 -20 96 1 98
13 120 48 85z"/>
<path d="M6187 10463 c-18 -17 -2 -35 56 -63 52 -27 160 -99 177 -120 14 -17
173 -130 177 -126 6 6 -24 60 -52 95 -105 129 -317 256 -358 214z"/>
<path d="M5868 10246 c-1 -2 -35 -6 -74 -9 -66 -6 -232 -51 -244 -66 -3 -3
-17 -12 -32 -20 -30 -15 -53 -62 -50 -100 3 -37 131 -149 154 -135 4 3 8 1 8
-3 0 -16 140 -19 169 -3 12 6 21 8 21 5 0 -4 18 8 40 25 22 17 40 35 40 38 0
4 -21 8 -48 8 -247 8 -264 10 -289 38 -51 60 -21 95 112 132 141 39 263 38
328 -3 7 -4 17 -8 22 -10 6 -1 87 -35 180 -76 94 -41 173 -72 178 -70 15 9 6
50 -15 70 -24 21 -112 73 -125 74 -5 0 -15 6 -23 13 -8 7 -31 18 -50 25 -19 7
-44 17 -55 22 -35 15 -100 29 -161 35 -33 3 -64 7 -71 9 -6 2 -13 2 -15 1z"/>
<path d="M9309 10173 c-30 -7 -67 -20 -84 -28 -24 -11 -157 -113 -225 -173 -8
-7 -27 -22 -41 -35 -127 -109 -163 -154 -167 -202 -4 -37 31 -90 73 -114 17
-9 33 -20 36 -24 3 -5 9 -8 13 -8 10 1 96 -43 96 -49 0 -4 22 -22 50 -41 27
-19 56 -47 64 -63 30 -61 -23 -133 -111 -152 -77 -16 -145 -49 -188 -93 -26
-26 -48 -52 -48 -57 0 -5 -6 -15 -14 -22 -7 -7 -18 -31 -24 -53 -16 -52 -4
-86 39 -115 34 -23 43 -23 132 -4 115 25 198 26 450 4 108 -9 388 -10 439 -1
44 8 121 46 128 63 3 8 11 14 19 14 8 0 14 7 14 15 0 8 5 15 10 15 6 0 10 7
10 15 0 8 5 15 10 15 6 0 10 5 10 11 0 5 9 29 19 52 10 23 25 61 32 85 6 23
17 42 22 42 6 0 7 3 4 7 -12 11 37 38 63 34 92 -12 143 -141 83 -207 -35 -38
-103 -89 -103 -78 0 5 -4 4 -8 -1 -4 -6 -23 -18 -42 -29 -19 -10 -48 -29 -65
-42 -24 -19 -27 -26 -16 -33 7 -5 27 -5 42 -1 16 5 29 6 29 2 0 -4 4 -2 8 4
10 15 190 103 227 111 89 18 150 -1 225 -67 44 -39 88 -51 116 -32 12 7 12 9
-6 82 -21 87 -3 150 48 168 23 8 35 4 81 -28 88 -61 122 -30 56 52 -19 24 -72
93 -119 153 -83 108 -213 245 -234 245 -6 0 -12 4 -14 8 -6 17 -111 84 -196
125 -121 60 -307 117 -427 132 -142 17 -161 30 -171 115 -7 60 -31 115 -61
142 -54 49 -181 67 -284 41z m491 -377 c14 -3 39 -7 55 -9 178 -28 514 -180
569 -258 23 -34 10 -52 -33 -44 -20 4 -39 12 -43 18 -4 7 -8 9 -8 6 0 -4 -27
2 -61 12 -130 40 -356 73 -519 74 -185 2 -252 18 -268 64 -14 40 8 78 66 119
46 33 48 33 132 28 47 -3 96 -7 110 -10z m-537 -533 c21 -47 60 -172 63 -196
2 -30 -35 -47 -91 -41 -111 11 -166 36 -191 90 -20 41 -12 81 19 94 12 5 49
27 82 49 76 52 97 52 118 4z"/>
<path d="M6122 9770 c-26 -9 -57 -22 -67 -27 -11 -6 -40 -14 -65 -18 -25 -4
-52 -9 -60 -10 -8 -2 -37 -6 -65 -9 -27 -4 -61 -9 -75 -11 -14 -2 -50 -6 -81
-10 -31 -3 -65 -7 -75 -9 -11 -2 -39 -7 -64 -10 -36 -5 -143 -28 -280 -61 -40
-9 -168 -59 -196 -76 -17 -10 -33 -16 -36 -14 -3 3 -11 -1 -18 -10 -7 -8 -16
-15 -21 -15 -10 0 -80 -44 -112 -70 -49 -40 -119 -112 -177 -185 -35 -44 -70
-87 -77 -95 -7 -8 -41 -51 -76 -95 -34 -44 -72 -91 -84 -105 -24 -26 -28 -46
-15 -67 15 -23 60 1 132 70 38 37 78 67 89 67 10 0 33 -17 50 -37 18 -21 47
-43 64 -49 28 -9 40 -7 97 20 101 47 183 35 265 -41 21 -19 46 -32 110 -58 41
-17 164 -22 235 -10 19 3 67 8 105 10 210 16 234 19 293 46 84 38 131 113 181
286 12 40 29 76 38 81 56 32 170 -82 179 -179 7 -75 -17 -94 -166 -128 -99
-23 -153 -52 -132 -73 8 -8 26 -8 61 -1 33 7 51 7 51 0 0 -5 7 -4 15 3 16 13
254 19 320 7 67 -12 70 -12 83 -20 22 -15 73 -10 90 7 20 20 22 141 3 191 -19
47 -74 135 -86 135 -5 0 -23 -7 -39 -15 -15 -8 -46 -15 -67 -15 -36 0 -47 7
-109 70 -39 39 -70 77 -70 85 0 16 36 43 66 50 21 5 83 27 129 46 17 7 33 13
37 13 12 2 50 30 80 59 35 34 35 63 3 111 -36 52 -70 80 -150 119 -117 58
-233 75 -313 47z m-848 -542 c19 -19 97 -180 135 -281 13 -33 -2 -44 -54 -44
-101 0 -233 120 -229 207 1 14 2 35 3 47 0 12 15 35 31 52 26 26 40 32 83 40
4 0 18 -9 31 -21z"/>
<path d="M6597 9723 c-4 -3 4 -13 17 -22 72 -48 142 -96 146 -102 10 -12 112
-79 121 -79 5 0 2 17 -6 38 -30 73 -167 172 -239 172 -18 0 -36 -3 -39 -7z"/>
<path d="M8354 9489 c-20 -22 -20 -24 -12 -299 6 -189 28 -240 94 -224 28 7
43 49 26 73 -38 52 -44 87 -48 252 -3 157 -12 219 -32 219 -5 0 -17 -9 -28
-21z"/>
<path d="M6524 8293 c-27 -20 -50 -41 -52 -45 -2 -4 -10 -8 -17 -8 -8 0 -18
-6 -22 -13 -4 -7 -24 -24 -43 -37 -19 -14 -46 -35 -60 -47 -14 -13 -28 -23
-32 -23 -5 0 -8 -5 -8 -10 0 -40 251 95 303 163 48 64 6 77 -69 20z"/>
<path d="M9027 8253 c-25 -24 30 -84 158 -174 87 -60 108 -76 162 -116 24 -18
47 -33 52 -33 5 0 16 -6 23 -13 48 -48 207 -103 223 -78 3 6 -125 101 -150
110 -5 2 -12 7 -15 11 -5 7 -438 300 -443 300 -2 0 -7 -3 -10 -7z"/>
<path d="M8934 7536 c-8 -32 10 -120 33 -168 21 -40 33 -107 22 -114 -13 -7 0
-76 18 -96 21 -24 65 -33 78 -15 5 8 20 17 33 21 12 4 22 14 22 23 0 9 -27 58
-60 110 -33 51 -60 96 -60 100 0 3 -7 14 -15 23 -9 10 -17 26 -19 36 -3 11
-13 39 -24 64 l-21 44 -7 -28z"/>
<path d="M3609 7525 c-8 -45 -2 -121 13 -175 10 -36 21 -76 24 -90 2 -14 8
-34 11 -45 9 -29 10 -75 2 -112 -6 -30 -6 -31 17 -21 36 17 47 63 28 128 -8
30 -17 62 -19 70 -2 8 -8 30 -14 48 -5 17 -7 32 -4 32 3 0 0 7 -7 15 -7 8 -10
15 -6 15 3 0 1 12 -5 28 -6 15 -13 37 -15 49 -6 31 -22 70 -25 58z"/>
<path d="M8447 6769 c-56 -13 -111 -44 -160 -91 -45 -44 -107 -129 -107 -146
0 -6 -3 -12 -8 -14 -4 -1 -27 -33 -50 -70 -31 -47 -42 -73 -37 -87 9 -28 17
-26 40 10 30 47 103 78 173 73 31 -2 67 -4 79 -4 23 0 121 63 136 87 4 7 15
13 22 13 8 0 15 4 15 9 0 14 77 41 118 41 107 0 106 97 -2 152 -21 11 -48 22
-60 24 -41 10 -121 11 -159 3z"/>
<path d="M6825 6722 c-81 -14 -112 -42 -101 -88 7 -28 28 -30 78 -9 37 15 76
13 118 -7 29 -15 142 -97 152 -113 5 -6 8 -6 8 0 0 6 3 6 8 -1 26 -38 180 -64
263 -44 l53 13 -25 19 c-13 11 -37 32 -54 47 -85 75 -189 138 -275 166 -50 17
-176 26 -225 17z"/>
<path d="M8950 6212 c-8 -2 -28 -19 -45 -37 -38 -42 -79 -50 -144 -31 -48 14
-187 16 -208 3 -5 -3 -27 -8 -49 -11 -22 -4 -51 -9 -64 -12 -71 -16 -104 -19
-208 -18 -127 2 -117 8 -97 -66 17 -63 17 -68 -7 -92 -14 -13 -49 -39 -79 -58
-30 -19 -60 -40 -67 -47 -19 -19 -70 -16 -87 5 -8 9 -28 37 -45 61 l-32 43
-51 -6 c-29 -3 -70 -10 -92 -15 -22 -6 -41 -8 -44 -6 -2 2 -12 0 -23 -6 -11
-6 -29 -13 -41 -15 -12 -3 -33 -8 -47 -11 -46 -11 -102 -5 -129 14 -23 17 -66
83 -69 106 -4 36 -16 67 -25 68 -27 3 -43 -4 -68 -27 -30 -29 -34 -29 -61 -4
-37 34 -139 74 -183 72 -88 -6 -113 -13 -199 -59 -37 -20 -74 -20 -94 0 -13
14 -14 21 -3 44 16 36 -6 55 -50 43 -16 -5 -29 -7 -29 -5 0 2 -16 -3 -35 -11
-19 -8 -35 -12 -35 -9 0 13 -59 -28 -108 -74 -29 -28 -55 -51 -58 -51 -3 0
-12 -7 -20 -15 -8 -8 -39 -22 -69 -31 -30 -10 -55 -21 -55 -26 0 -4 -7 -8 -15
-8 -9 0 -28 -8 -43 -19 -86 -59 -279 -174 -310 -185 -40 -14 -103 -13 -142 2
-25 10 -82 -12 -150 -57 -14 -10 -52 -35 -85 -56 -122 -80 -247 -240 -257
-330 -3 -28 -1 -30 28 -28 22 1 39 -6 53 -21 20 -21 20 -23 4 -39 -60 -54
-122 -132 -124 -155 0 -4 -13 -18 -30 -30 -22 -18 -44 -24 -88 -26 -93 -4
-207 -71 -249 -144 -10 -19 -10 -22 4 -22 16 0 86 34 114 56 12 10 39 12 71 5
14 -2 16 -57 4 -81 -7 -14 -16 -58 -19 -99 -6 -71 -29 -141 -47 -141 -11 0 -2
-40 14 -59 23 -27 26 -58 10 -127 -16 -71 -23 -82 -97 -159 -98 -102 -141
-171 -277 -442 -59 -118 -59 -182 3 -251 59 -67 61 -89 13 -215 -54 -142 -84
-194 -147 -256 -37 -37 -58 -67 -59 -82 -2 -47 3 -74 23 -114 11 -22 22 -68
25 -102 3 -37 10 -60 15 -57 21 14 80 15 94 3 17 -14 42 -68 49 -108 3 -14 13
-60 23 -101 13 -51 18 -100 15 -155 -5 -110 -5 -117 2 -142 3 -13 30 -41 61
-64 72 -53 92 -96 88 -187 -2 -51 2 -73 14 -90 17 -22 18 -21 51 65 42 110
100 233 109 233 9 0 92 -126 92 -139 0 -5 6 -14 14 -20 35 -29 58 -204 35
-266 -11 -32 15 -85 43 -86 53 -3 64 3 53 28 -28 65 -5 119 67 158 47 26 98
29 98 6 0 -5 31 -32 70 -61 79 -58 108 -94 131 -159 13 -38 21 -47 56 -58 38
-13 103 -71 103 -91 0 -19 129 -142 149 -143 12 -1 27 -2 34 -2 18 -2 89 24
112 39 42 29 88 9 88 -39 0 -13 -12 -48 -27 -78 -14 -31 -26 -61 -26 -67 0
-15 21 -20 57 -11 25 5 39 2 57 -12 13 -10 32 -19 42 -19 10 0 48 31 84 68 76
78 89 85 113 67 65 -47 16 -171 -73 -182 -42 -6 -84 -26 -107 -51 -39 -46 -35
-72 38 -220 37 -75 77 -147 88 -159 12 -12 21 -26 21 -30 0 -11 67 -66 91 -75
15 -6 19 -3 19 12 0 42 22 70 55 70 37 0 50 -21 59 -90 7 -56 13 -88 20 -98 3
-5 7 -21 10 -36 3 -15 12 -49 21 -74 35 -103 89 -121 75 -25 -8 51 -6 61 18
110 18 35 61 62 142 88 30 9 73 28 95 40 22 13 44 23 49 23 5 0 12 4 15 9 10
13 51 34 76 39 15 3 36 -8 66 -34 24 -22 92 -62 150 -89 162 -78 215 -133 205
-216 -7 -53 -28 -98 -68 -140 -37 -40 -61 -84 -49 -91 4 -3 11 -2 15 2 4 4 11
7 14 8 28 3 65 33 99 79 11 14 48 87 48 94 1 3 10 24 22 47 25 47 51 72 61 58
26 -38 149 -94 207 -94 54 0 110 -41 114 -85 10 -95 70 -99 196 -14 43 29 45
33 31 47 -13 13 -24 14 -66 6 -55 -12 -74 -6 -64 20 5 14 17 16 67 12 54 -3
66 0 116 30 69 42 144 58 235 51 88 -7 112 -12 143 -32 34 -22 49 -14 75 42
29 60 32 65 91 123 26 26 80 63 120 82 106 53 113 54 142 22 29 -31 29 -48 -4
-146 -12 -35 -21 -67 -20 -72 0 -5 -3 -12 -8 -15 -6 -5 -68 -180 -79 -226 -2
-5 -7 -25 -13 -42 l-10 -33 30 16 c17 8 33 23 36 32 4 9 9 19 13 22 3 3 25 63
49 135 23 72 45 137 48 145 3 8 7 20 8 25 2 6 15 49 30 97 20 64 32 89 47 94
25 8 41 -8 43 -43 2 -38 14 -73 26 -73 12 0 60 96 74 150 16 62 10 122 -21
207 -31 85 -29 143 7 213 33 65 47 72 77 42 13 -13 18 -32 17 -65 -2 -58 15
-77 42 -47 30 31 41 80 36 159 -2 39 0 71 4 71 9 0 81 -47 99 -65 7 -6 22 -31
34 -55 20 -39 22 -52 14 -115 -11 -99 -12 -234 -2 -273 9 -34 33 -51 49 -35 5
5 11 56 14 113 13 242 13 241 64 340 29 55 50 119 57 173 2 16 5 36 8 46 3 9
8 45 11 81 9 90 22 137 56 196 33 58 35 90 14 152 -14 39 -14 47 1 77 10 21
27 37 47 45 85 30 116 53 138 96 22 47 22 46 33 116 10 56 40 95 62 77 8 -6
14 -20 14 -30 0 -14 16 -61 26 -77 8 -12 54 35 60 61 4 18 8 34 9 37 6 23 31
60 43 65 9 3 36 8 61 11 88 10 118 22 134 56 23 47 6 82 -46 94 -66 14 -103
59 -73 89 27 27 64 15 206 -68 57 -34 74 -35 64 -4 -9 31 -51 69 -111 101 -74
41 -89 87 -56 176 22 58 61 98 89 91 35 -10 89 -52 115 -90 46 -66 93 -105
149 -121 l33 -9 -6 35 c-5 27 -23 52 -76 105 -67 65 -91 105 -76 128 4 8 12 8
26 1 10 -6 19 -8 19 -5 0 3 13 -1 28 -9 16 -8 33 -11 39 -8 14 9 30 44 27 60
-1 6 -2 18 -3 26 -1 18 -43 59 -78 76 -45 23 -114 81 -125 106 -14 29 8 54 55
61 58 9 66 18 63 70 -3 58 42 186 78 222 19 18 39 25 80 29 60 5 72 17 55 56
-9 20 -75 65 -124 85 -17 7 -34 28 -28 35 4 3 1 6 -5 6 -29 0 -15 73 25 126
42 56 48 88 24 136 -34 72 -41 137 -27 243 4 28 9 72 12 99 2 27 6 52 9 54 3
3 0 11 -6 19 -7 8 -8 13 -1 13 5 0 8 10 6 23 -7 32 53 -90 67 -138 7 -22 14
-44 15 -50 10 -31 35 -144 38 -168 5 -43 26 -58 27 -21 9 190 -12 317 -76 449
-34 71 -90 138 -109 132 -6 -2 -11 -17 -11 -34 0 -19 -10 -39 -27 -54 -29 -27
-35 -49 -25 -94 4 -16 10 -43 13 -60 16 -73 -9 -150 -58 -176 -49 -26 -73 56
-38 132 30 62 33 133 10 179 -10 19 -51 78 -90 130 -78 103 -140 220 -166 315
-9 35 -17 106 -19 171 l-2 112 -46 84 c-48 87 -197 306 -239 350 -12 13 -52
56 -88 94 -60 63 -110 109 -168 156 -40 32 -236 161 -296 195 -79 44 -268 137
-281 138 -5 1 -25 -9 -43 -21 -37 -24 -49 -23 -167 19 -62 22 -117 37 -180 50
-11 2 -27 2 -35 -1z m-3749 -1399 c-1 -58 -4 -73 -12 -73 -3 0 -9 -8 -13 -17
-3 -10 -14 -33 -25 -51 -21 -37 -32 -30 -38 22 -10 92 -8 100 34 141 42 41 56
35 54 -22z m1779 -91 c16 -16 30 -34 30 -40 0 -25 27 -30 195 -37 159 -7 243
-11 405 -20 134 -8 200 -8 240 0 14 3 34 7 45 9 11 2 47 11 80 19 111 29 233
50 252 43 7 -3 13 -2 13 2 0 14 435 21 505 8 53 -10 222 -12 260 -3 17 4 73 7
125 6 150 -1 172 -1 224 5 62 7 107 -18 147 -84 29 -46 51 -147 40 -180 -1 -3
-4 -21 -6 -40 -31 -261 -90 -357 -236 -385 -70 -14 -272 -4 -354 17 -22 6 -49
12 -60 13 -11 2 -43 10 -71 18 -27 8 -68 13 -90 11 -21 -1 -106 -5 -189 -9
-174 -7 -221 -12 -309 -31 -32 -8 -86 -10 -86 -4 0 3 -19 5 -43 6 -23 0 -60 4
-82 7 -171 29 -373 37 -515 21 -36 -4 -67 -8 -70 -9 -3 -1 -32 -7 -65 -14 -33
-7 -85 -21 -115 -31 -32 -11 -84 -19 -125 -19 -90 -1 -105 -3 -105 -13 0 -4
-6 -8 -14 -8 -8 0 -41 -24 -73 -53 -58 -53 -89 -73 -108 -68 -5 2 -19 4 -30 5
-33 5 -167 47 -205 64 -25 12 -39 28 -50 58 l-15 41 -54 -13 c-29 -8 -58 -17
-65 -21 -6 -4 -15 -8 -21 -8 -5 -1 -23 -7 -40 -14 -64 -28 -155 -32 -178 -9
-55 55 -91 255 -66 369 12 56 42 129 52 129 5 0 6 4 3 9 -10 16 103 112 166
141 85 39 242 79 341 85 116 8 129 10 155 24 12 6 22 9 22 6 0 -3 9 0 19 7 37
26 88 21 121 -10z m-2273 -1102 c3 -11 9 -20 13 -20 4 0 7 -17 6 -37 -1 -28
-6 -37 -16 -35 -27 6 -43 50 -33 90 7 27 23 29 30 2z m3164 -281 c9 -14 13
-36 10 -52 -5 -28 -13 -123 -16 -185 -1 -40 -4 -75 -6 -76 -22 -20 -85 -56
-98 -56 -22 0 -49 33 -56 67 -5 28 11 83 24 83 18 0 43 67 47 125 4 78 24 114
61 110 14 -1 29 -9 34 -16z m274 -193 c17 -12 32 -24 33 -28 2 -5 7 -8 12 -8
17 0 98 -87 117 -125 54 -109 -62 -253 -197 -246 -38 1 -94 71 -119 147 -28
87 -27 115 11 208 43 104 59 110 143 52z m1570 -1560 c4 -17 8 -33 9 -36 4
-13 26 -108 30 -130 3 -14 7 -34 9 -45 14 -66 17 -95 10 -95 -25 0 -122 93
-123 118 0 6 -4 12 -10 12 -5 0 -10 8 -10 18 0 10 -5 23 -11 29 -15 15 -19
111 -6 142 6 14 20 36 31 49 l21 23 21 -27 c12 -15 25 -41 29 -58z m-3199
-756 c14 -29 -3 -73 -36 -90 -16 -8 -21 -6 -32 12 -17 32 -18 48 -6 72 23 43
56 46 74 6z"/>
<path d="M8815 4614 c-38 -19 -75 -58 -75 -79 0 -22 30 -12 97 32 73 48 55 87
-22 47z"/>
<path d="M4280 4165 c-1 -5 -4 -26 -6 -45 -1 -19 -5 -51 -9 -70 -11 -68 -14
-249 -4 -255 5 -4 7 -11 4 -16 -4 -5 -1 -9 5 -9 22 0 31 58 28 194 -2 125 -11
229 -18 201z"/>
<path d="M5964 1133 c-4 -10 -6 -21 -6 -25 1 -5 -2 -8 -7 -8 -10 0 -24 -59
-26 -105 -2 -47 14 -82 51 -115 39 -34 60 -40 45 -12 -20 37 -33 163 -20 197
6 19 -13 85 -24 85 -3 0 -8 -8 -13 -17z"/>
<path d="M7765 140 c-40 -15 -66 -67 -56 -108 3 -12 63 38 78 65 20 37 10 56
-22 43z"/>
</g>
</svg>
